<?xml version="1.0" encoding="utf-8"?>
<!-- Generator: Adobe Illustrator 22.1.0, SVG Export Plug-In . SVG Version: 6.00 Build 0)  -->
<svg version="1.1" id="Layer_1" xmlns="http://www.w3.org/2000/svg" xmlns:xlink="http://www.w3.org/1999/xlink" x="0px" y="0px"
	 viewBox="0 0 937 937" style="enable-background:new 0 0 937 937;" xml:space="preserve">
<style type="text/css">
	.st0{fill:#00ADB5;}
</style>
<g id="surface1">
	<path class="st0" d="M31.2,124.9c0-17.3,14-31.2,31.2-31.2h749.6c17.3,0,31.2,14,31.2,31.2v218.6h31.2V124.9
		c0-34.5-28-62.5-62.5-62.5H62.5C28,62.5,0,90.4,0,124.9v531c0,34.5,28,62.5,62.5,62.5h275.7l-37.5,124.9h-35.2v31.2H609v-31.2
		h-35.2l-37.5-124.9H609v-31.2H62.5c-17.3,0-31.2-14-31.2-31.2v-31.2H609v-31.2H31.2V124.9z M370.8,718.4h132.9l37.5,124.9H333.3
		L370.8,718.4z"/>
	<path class="st0" d="M812.1,343.6v-203c0-8.6-7-15.6-15.6-15.6H78.1c-8.6,0-15.6,7-15.6,15.6v421.6h31.2V281.1h687.1v62.5H812.1z
		 M93.7,249.9v-93.7h687.1v93.7H93.7z"/>
	<path class="st0" d="M140.6,187.4h93.7v31.2h-93.7V187.4z"/>
	<path class="st0" d="M265.5,187.4h93.7v31.2h-93.7V187.4z"/>
	<path class="st0" d="M390.4,187.4h93.7v31.2h-93.7V187.4z"/>
	<path class="st0" d="M515.3,187.4H609v31.2h-93.7V187.4z"/>
	<path class="st0" d="M312.3,328c0-8.6-7-15.6-15.6-15.6H140.6c-8.6,0-15.6,7-15.6,15.6v124.9c0,8.6,7,15.6,15.6,15.6h156.2
		c8.6,0,15.6-7,15.6-15.6V328z M281.1,437.3H156.2v-93.7h124.9V437.3z"/>
	<path class="st0" d="M531,328c0-8.6-7-15.6-15.6-15.6H359.2c-8.6,0-15.6,7-15.6,15.6v124.9c0,8.6,7,15.6,15.6,15.6h156.2
		c8.6,0,15.6-7,15.6-15.6V328z M499.7,437.3H374.8v-93.7h124.9V437.3z"/>
	<path class="st0" d="M593.4,343.6h156.2V328c0-8.6-7-15.6-15.6-15.6H577.8c-8.6,0-15.6,7-15.6,15.6v124.9c0,8.6,7,15.6,15.6,15.6
		H609v-31.2h-15.6V343.6z"/>
	<path class="st0" d="M312.3,562.2v-46.8c0-8.6-7-15.6-15.6-15.6H140.6c-8.6,0-15.6,7-15.6,15.6v46.8h31.2V531h124.9v31.2H312.3z"/>
	<path class="st0" d="M531,562.2v-46.8c0-8.6-7-15.6-15.6-15.6H359.2c-8.6,0-15.6,7-15.6,15.6v46.8h31.2V531h124.9v31.2H531z"/>
	<path class="st0" d="M562.2,515.4v46.8h31.2V531H609v-31.2h-31.2C569.2,499.7,562.2,506.7,562.2,515.4z"/>
	<path class="st0" d="M874.5,374.8H702.8c-34.5,0-62.5,28-62.5,62.5v374.8c0,34.5,28,62.5,62.5,62.5h171.8c34.5,0,62.5-28,62.5-62.5
		V437.3C937,402.8,909,374.8,874.5,374.8z M905.8,812.1c0,17.3-14,31.2-31.2,31.2H702.8c-17.3,0-31.2-14-31.2-31.2v-15.6h234.3
		V812.1z M905.8,765.2H671.5v-328c0-17.3,14-31.2,31.2-31.2h171.8c17.3,0,31.2,14,31.2,31.2V765.2z"/>
	<path class="st0" d="M858.9,499.7H718.4c-8.6,0-15.6,7-15.6,15.6v124.9c0,8.6,7,15.6,15.6,15.6h140.6c8.6,0,15.6-7,15.6-15.6V515.4
		C874.5,506.7,867.5,499.7,858.9,499.7z M843.3,624.7H734V531h109.3V624.7z"/>
	<path class="st0" d="M858.9,687.1H718.4c-8.6,0-15.6,7-15.6,15.6V734H734v-15.6h109.3V734h31.2v-31.2
		C874.5,694.1,867.5,687.1,858.9,687.1z"/>
	<path class="st0" d="M702.8,437.3h171.8v31.2H702.8V437.3z"/>
</g>
</svg>
