<svg id="Layer_1" data-name="Layer 1" xmlns="http://www.w3.org/2000/svg" viewBox="0 0 277.3 346"><defs><style>.cls-1{fill:#fff;}</style></defs><title>Untitled-1</title><path id="one-finger-swipe-right" class="cls-1" d="M194.6,142.9H95.75l52.86-53.54L136.41,77,63.23,151.14l73.18,74.15,12.2-12.36L95.75,159.38h98.4V423H340.52V151.23c0-41-32.76-74.23-73.18-74.23-37.57,0-68.65,28.83-72.74,65.9ZM267.34,110c22.45,0,40.65,18.6,40.65,41.35v57.51H226.68V151.3c0-22.83,18-41.35,40.66-41.35ZM308,258.24v16.47H226.68V258.24Zm0,32.95v16.48H226.68V291.19Z" transform="translate(-63.23 -77)"/><rect class="cls-1" x="159.77" y="165" width="95" height="88"/></svg>